PathFileType	4	(X/Y/Z)	 s04c0303.trc
DataRate	CameraRate	NumFrames	NumMarkers	Units	OrigDataRate	OrigDataStartFrame	OrigNumFrames
200	200	4	50	mm	200	751	2000
Frame#	Time	racr			lacr			c7			jug			rlel			rdr			llel			ldr			s2			lic			ric			lasi			rasi			rpsi			lpsi			rgt			lgt			rth1			rth2			rth3			rth4			rlfc			rmfc			rsh1			rsh2			rsh3			rsh4			rlmal			rmmal			rcal			rtoe			rmt5			lth1			lth2			lth4			lth3			llfc			lmfc			lsh1			lsh2			lsh3			lsh4			llmal			lmmal			lcal			ltoe			lmt5			SBIKE			LBIKE			RBIKE			
		X1	Y1	Z1	X2	Y2	Z2	X3	Y3	Z3	X4	Y4	Z4	X5	Y5	Z5	X6	Y6	Z6	X7	Y7	Z7	X8	Y8	Z8	X9	Y9	Z9	X10	Y10	Z10	X11	Y11	Z11	X12	Y12	Z12	X13	Y13	Z13	X14	Y14	Z14	X15	Y15	Z15	X16	Y16	Z16	X17	Y17	Z17	X18	Y18	Z18	X19	Y19	Z19	X20	Y20	Z20	X21	Y21	Z21	X22	Y22	Z22	X23	Y23	Z23	X24	Y24	Z24	X25	Y25	Z25	X26	Y26	Z26	X27	Y27	Z27	X28	Y28	Z28	X29	Y29	Z29	X30	Y30	Z30	X31	Y31	Z31	X32	Y32	Z32	X33	Y33	Z33	X34	Y34	Z34	X35	Y35	Z35	X36	Y36	Z36	X37	Y37	Z37	X38	Y38	Z38	X39	Y39	Z39	X40	Y40	Z40	X41	Y41	Z41	X42	Y42	Z42	X43	Y43	Z43	X44	Y44	Z44	X45	Y45	Z45	X46	Y46	Z46	X47	Y47	Z47	X48	Y48	Z48	X49	Y49	Z49	X50	Y50	Z50	
751	3.7550	812.670474	1336.369571	-113.728045	828.994490	1286.102622	-418.207545	836.741484	1385.555428	-268.600077	766.751329	1245.710499	-264.691880	594.459070	1143.279101	44.304340	705.547075	911.671326	-72.853294	590.654371	1145.429964	-544.113842	705.434006	925.688841	-453.974171	236.454965	1276.719714	-241.589189	366.571418	1255.811893	-409.589100	403.267635	1248.595062	-93.592043	404.128427	1203.450576	-373.371473	430.664840	1188.344357	-139.060471	282.529078	1310.147796	-203.172800	269.804406	1319.166732	-274.450549	345.212772	1197.118775	-72.417527	321.434271	1172.240650	-431.853742	406.522163	1040.275787	-67.319982	449.743351	962.918765	-73.983022	452.074840	877.476018	-72.263901	480.069900	972.327525	-93.839707	456.417487	727.936952	-87.491072	435.618894	718.325600	-201.613297	351.333841	649.653512	-67.542222	299.348257	576.891671	-88.866456	220.260809	545.738026	-99.931801	323.188050	556.184924	-110.494621	106.356742	437.215196	-114.405319	137.778430	428.997062	-197.425352	50.781144	472.265067	-162.298790	187.404128	197.540078	-150.299488	131.334517	245.962540	-100.556340	370.239220	1092.752415	-441.400546	441.872502	1043.131367	-443.427099	469.123871	1066.444259	-436.075677	479.244215	962.898310	-445.049742	561.757962	823.625023	-425.938242	586.766532	796.040209	-317.607399	512.067910	715.972358	-451.537874	481.400335	636.634836	-432.560872	414.253438	578.118993	-432.207930	504.741483	623.655719	-403.258811	323.637271	467.240400	-433.262747	321.152014	473.539602	-345.551172	237.540422	461.915111	-395.477296	527.409321	378.876439	-397.021028	451.259226	361.107798	-460.607118	-175.586269	933.290157	-280.318286	-3.377319	85.681334	-484.566973	-14.999081	80.625376	-84.073471	
752	3.7600	811.347407	1338.788478	-112.244908	829.922999	1287.319301	-416.547875	836.218364	1386.517593	-266.542483	766.329976	1246.633249	-261.974293	594.869071	1143.448925	45.272227	706.053882	912.263585	-72.883642	591.511075	1146.356377	-543.555433	706.234944	926.409915	-453.362516	236.261859	1274.122239	-242.607788	367.192122	1252.725085	-410.919229	403.248812	1248.885548	-94.534572	405.173302	1200.343264	-373.878515	431.378202	1188.940768	-139.777521	281.028306	1309.350273	-204.018213	269.917953	1316.409183	-277.825572	347.475674	1196.900299	-73.413746	320.916543	1166.864961	-431.467146	410.804226	1040.988452	-68.609857	454.594708	964.364060	-73.902267	457.580450	878.991420	-73.164957	484.814575	974.126281	-93.562013	463.787687	729.979179	-87.548779	442.369979	720.338432	-201.625150	357.443813	653.793478	-67.152750	304.902278	582.853944	-87.146681	223.724033	553.100022	-99.041897	326.955295	561.088492	-110.149111	107.104912	447.372098	-113.481482	138.360162	438.398977	-196.709142	51.848333	483.499799	-161.213433	184.354205	206.609819	-150.378832	128.991405	255.896620	-100.335511	369.382048	1087.186188	-441.594745	440.020988	1037.112236	-445.068065	468.113162	1060.028474	-436.963888	477.307665	956.343013	-445.064519	558.071123	817.529761	-426.365602	582.828733	789.120595	-317.327131	509.351789	708.430951	-451.235734	479.778791	628.311347	-432.702653	413.636618	569.036737	-432.470672	503.630975	615.579386	-403.747246	325.164401	455.830517	-433.232888	322.426625	462.164744	-345.598749	239.411836	449.952123	-395.876815	529.560437	368.730505	-396.750836	453.559585	350.637474	-460.445751	-175.572857	933.296714	-280.038152	-3.376621	85.741260	-484.506867	-14.984010	80.632821	-84.034497	
753	3.7650	810.109077	1340.736492	-111.115633	831.090701	1289.172333	-415.755790	835.663184	1386.966968	-264.886215	765.939672	1247.019107	-259.547898	595.316865	1143.547848	46.262724	706.031378	912.156340	-72.301363	592.359190	1147.288781	-543.167345	706.629827	926.931107	-453.279680	236.226528	1271.083824	-243.453042	367.899175	1249.589124	-412.283834	403.051408	1249.205835	-95.445292	406.195455	1197.268165	-374.497306	432.038745	1189.353535	-140.217069	280.865424	1306.928270	-206.423003	268.878960	1313.276813	-279.645305	349.455519	1196.746700	-73.398812	320.658274	1161.746136	-431.176578	414.224050	1041.745538	-68.611985	459.143106	965.516749	-73.601395	462.904814	880.301991	-73.506117	489.115146	975.751859	-92.972750	470.868816	731.763727	-87.627338	448.442960	721.962267	-201.576076	363.170079	657.864520	-66.835042	308.776733	588.353343	-86.647278	226.943745	560.439407	-98.347696	330.248686	566.025768	-109.850548	107.648016	457.559095	-112.817806	138.451006	448.262669	-195.991597	52.748269	494.625455	-160.348229	182.031582	216.167401	-150.395174	127.154721	265.926017	-100.157649	368.612661	1081.792777	-441.814776	438.984620	1030.957510	-445.175921	467.132343	1053.769737	-437.827788	475.359216	949.938482	-445.169958	554.514434	811.435680	-426.750768	579.461048	782.620626	-317.429625	506.607138	700.808670	-451.324493	478.163953	620.418362	-432.987873	412.907642	560.153809	-432.708056	502.430229	607.683850	-404.268686	326.382594	444.835300	-433.403630	323.517019	451.271125	-345.878568	240.636290	438.812259	-396.554566	531.245088	358.276654	-396.453918	455.345146	339.896616	-460.193512	-175.589742	933.333813	-279.801521	-3.358523	85.803980	-484.467310	-14.996816	80.673548	-83.981253	
754	3.7700	809.000833	1342.253368	-109.886732	831.837256	1289.790143	-414.184452	835.037816	1387.212113	-263.439808	765.705650	1247.093310	-257.322037	595.876212	1143.589526	47.481984	706.222065	912.355932	-72.011819	593.063050	1148.117068	-542.931624	706.961577	927.279924	-453.196581	236.036702	1267.873338	-244.537231	368.701407	1246.410048	-413.676096	402.582400	1249.392028	-96.245456	407.251321	1194.638780	-375.058398	432.510806	1189.642185	-140.652692	279.768781	1305.032174	-207.800963	267.886627	1310.088998	-281.521426	351.120081	1196.292825	-73.600256	320.605011	1156.902807	-431.033392	417.040633	1042.147786	-68.380749	462.430166	966.406080	-73.930553	467.479863	881.297672	-73.118578	492.645816	976.894399	-92.345610	477.584859	733.415619	-87.618696	453.795783	723.029477	-201.745665	368.562975	661.968544	-66.573644	311.187013	593.321208	-87.424039	229.733338	567.944644	-97.994309	333.254613	571.005003	-109.566622	108.234061	467.974982	-112.362766	138.621442	458.178529	-195.464562	53.462107	505.585024	-159.864674	180.607050	226.353845	-150.411568	126.154675	276.192113	-100.056892	367.966119	1076.642475	-442.288644	437.971124	1025.148307	-445.268604	466.185486	1047.678185	-438.764937	473.366745	943.707081	-445.244309	550.938364	805.321911	-427.214460	576.203970	776.113335	-317.591676	503.778675	693.506579	-451.673008	476.450844	612.636178	-433.349502	412.017257	551.525464	-433.099929	501.016440	600.356230	-405.061390	327.461705	433.970140	-433.686558	323.902734	441.160745	-346.979170	241.735275	427.663886	-396.317647	532.344605	347.387742	-396.202181	456.592802	329.122562	-460.010022	-175.603207	933.349394	-279.560339	-3.325950	85.869658	-484.439742	-14.969122	80.667980	-83.975940	
